<?xml version="1.0" encoding="UTF-8"?>
<svg width="150px" height="150px" viewBox="0 0 150 150" version="1.1" xmlns="http://www.w3.org/2000/svg" xmlns:xlink="http://www.w3.org/1999/xlink">
    <title>Angel Inn Logo</title>
    <desc>SVG Version of the Angel Inn logo - created by Andrew Haine</desc>
    <defs></defs>
    <g id="Symbols" stroke="none" stroke-width="1" fill="none" fill-rule="evenodd">
        <g id="Logo" fill="#FFFFFF">
            <path d="M57.6695171,31.9644515 C58.9095323,32.0195633 59.9153074,32.0471187 60.6868724,32.0471187 C61.4584375,32.0471187 62.4688051,32.0195633 63.7180057,31.9644515 C64.9672062,31.9093397 65.9775738,31.8817842 66.7491389,31.8817842 C67.2084038,31.8817842 67.8421798,31.7807474 68.6504861,31.5786709 L69.1740455,36.097815 C69.0454513,36.2264091 68.7790816,36.2907053 68.3749285,36.2907053 C68.2095931,36.2907053 68.1177415,36.2447794 68.0993709,36.1529265 C67.640106,34.3342374 66.6572939,33.4249066 65.150905,33.4249066 C63.6628867,33.4249066 62.8821481,33.5902395 62.8086657,33.9209102 C62.6617009,34.4352869 62.5882196,35.2527662 62.5882196,36.3733725 L62.5882196,46.3210006 C62.5882196,47.2395304 62.6617009,47.9835284 62.8086657,48.5530169 C62.8454069,48.6816111 63.0979988,48.8285736 63.566449,48.993909 C64.0348992,49.1592444 64.3517872,49.2419108 64.5171226,49.2419108 C64.590605,49.2419108 64.6273456,49.4164289 64.6273456,49.7654702 C64.6273456,49.9859173 64.6089753,50.1512502 64.5722341,50.2614738 C64.4436399,50.2614738 63.8925303,50.2247332 62.9188887,50.1512508 C61.9452471,50.0777684 61.2196195,50.0410278 60.741984,50.0410278 C60.2459779,50.0410278 59.5203502,50.0731758 58.5650792,50.1374729 C57.6098082,50.20177 57.0035876,50.2431032 56.7463993,50.2614738 C56.6729169,50.1879914 56.6361762,50.0410289 56.6361762,49.8205817 C56.6361762,49.4347992 56.6637317,49.2419108 56.7188435,49.2419108 C56.9209201,49.2419108 57.260771,49.163837 57.7384065,49.0076869 C58.216042,48.8515368 58.4824116,48.6999817 58.5375234,48.5530169 C58.6661176,48.0570108 58.7304137,47.3497535 58.7304137,46.4312237 L58.7304137,36.4560398 C58.7304137,35.0231333 58.6569324,34.1780985 58.5099677,33.9209102 C58.4548559,33.8106866 58.4043375,33.7326128 58.358411,33.6866863 C58.3124845,33.6407598 58.1150036,33.5856488 57.7659623,33.5213517 C57.4169209,33.4570546 56.9117371,33.4249066 56.2503956,33.4249066 C55.4972012,33.4249066 54.8817955,33.6315727 54.40416,34.0449111 C53.9265245,34.4582495 53.559118,35.1517291 53.3019297,36.1253707 C53.2835591,36.2172237 53.1917075,36.2631495 53.0263721,36.2631495 C52.622219,36.2631495 52.3558494,36.1988534 52.2272552,36.0702592 L52.7508146,31.5786709 C53.5591208,31.7807474 54.1928969,31.8817842 54.6521618,31.8817842 C55.4237268,31.8817842 56.4295019,31.9093397 57.6695171,31.9644515 Z M80.5270171,37.8613834 C81.5925117,37.8613834 82.4605094,38.3114562 83.1310361,39.2116154 C83.8015629,40.1117747 84.1368212,41.4803635 84.1368212,43.3174232 L84.1368212,46.0454431 C84.1368212,47.2211612 84.2011174,48.0570108 84.3297115,48.5530169 C84.3664527,48.6816111 84.6236372,48.8285736 85.1012727,48.993909 C85.5789082,49.1592444 85.9003888,49.2419108 86.0657242,49.2419108 C86.120836,49.2419108 86.152984,49.393466 86.1621693,49.6965808 C86.1713546,49.9996956 86.1575769,50.1879914 86.1208357,50.2614738 C85.9187592,50.2431032 85.3446866,50.20177 84.3986009,50.1374729 C83.4525152,50.0731758 82.7682208,50.0410278 82.3456971,50.0410278 C81.9048028,50.0410278 81.2388786,50.0731758 80.3479047,50.1374729 C79.4569308,50.20177 78.9012286,50.2431032 78.6807815,50.2614738 C78.6072991,50.1879914 78.5705584,49.9996956 78.5705584,49.6965808 C78.5705584,49.393466 78.6072991,49.2419108 78.6807815,49.2419108 C78.882858,49.2419108 79.2043386,49.1592444 79.6452329,48.993909 C80.0861272,48.8285736 80.3249414,48.6816111 80.3616826,48.5530169 C80.4902768,48.001899 80.5545729,47.3038268 80.5545729,46.4587794 L80.5545729,43.9787613 C80.5545729,42.6193372 80.3708697,41.6503028 80.0034578,41.071629 C79.6360458,40.4929552 79.0390104,40.2036227 78.2123336,40.2036227 C76.9263919,40.2036227 76.2834306,40.6077697 76.2834306,41.416076 L76.2834306,46.0454431 C76.2834306,47.2211612 76.3477268,48.0570108 76.4763209,48.5530169 C76.5130621,48.6816111 76.7564689,48.8285736 77.2065485,48.993909 C77.6566281,49.1592444 77.9551458,49.2419108 78.1021106,49.2419108 C78.1572224,49.2419108 78.1893704,49.393466 78.1985557,49.6965808 C78.207741,49.9996956 78.1939633,50.1879914 78.1572221,50.2614738 C77.9367749,50.2431032 77.3764801,50.20177 76.4763209,50.1374729 C75.5761617,50.0731758 74.9148302,50.0410278 74.4923065,50.0410278 C74.0514122,50.0410278 73.3625251,50.0731758 72.4256247,50.1374729 C71.4887243,50.20177 70.9192444,50.2431032 70.7171678,50.2614738 C70.6436854,50.1879914 70.6069448,49.9996956 70.6069448,49.6965808 C70.6069448,49.393466 70.6436854,49.2419108 70.7171678,49.2419108 C70.9192444,49.2419108 71.2590953,49.1592444 71.7367308,48.993909 C72.2143663,48.8285736 72.4715508,48.6816111 72.508292,48.5530169 C72.6368862,48.001899 72.7011823,47.3038268 72.7011823,46.4587794 L72.7011823,35.5191441 C72.7011823,34.655726 72.6552565,33.9943945 72.5634035,33.5351296 C72.4715505,33.2412001 71.9939222,33.0942375 71.1305042,33.0942375 L70.8825024,33.0942375 C70.7722788,33.0942375 70.7171678,32.9105343 70.7171678,32.5431224 C70.7171678,32.2308222 70.7722788,32.0746745 70.8825024,32.0746745 C71.4519908,32.0195627 72.0260634,31.9460814 72.6047371,31.8542285 C73.1834109,31.7623755 73.674817,31.6705239 74.0789701,31.5786709 C74.4831232,31.4868179 74.8459371,31.3949663 75.1674225,31.3031133 C75.4889079,31.2112603 75.7414998,31.1377791 75.9252058,31.0826673 L76.2007634,31 L76.2558749,31 C76.3293573,31 76.4028385,31.055111 76.4763209,31.1653345 C76.5498033,31.2755581 76.5957291,31.3765949 76.6140997,31.4684479 C76.3936526,32.2951247 76.2834306,33.2228259 76.2834306,34.2515793 L76.2834306,39.37695 C76.2834306,39.5055442 76.3201713,39.5698403 76.3936537,39.5698403 C76.4120243,39.5698403 76.4579501,39.5330996 76.5314324,39.4596173 C76.9355856,39.0003523 77.5050655,38.6191682 78.2398893,38.3160534 C78.9747132,38.0129385 79.7370815,37.8613834 80.5270171,37.8613834 Z M93.5884457,39.3493942 C92.8719925,39.3493942 92.3484383,39.6938377 92.0177676,40.3827351 C91.6870969,41.0716325 91.521764,41.7467417 91.521764,42.4080832 C91.521764,42.5183068 91.5860601,42.5734177 91.7146543,42.5734177 L95.2142354,42.5734177 C95.4714237,42.5734177 95.600016,42.3988997 95.600016,42.0498584 C95.600016,41.3517757 95.4117202,40.7271848 95.0351229,40.1760669 C94.6585257,39.624949 94.1763048,39.3493942 93.5884457,39.3493942 Z M93.7262245,37.8338276 C95.3795782,37.8338276 96.7068338,38.4079001 97.7080313,39.5560624 C98.7092288,40.7042247 99.2098201,41.8753326 99.2098201,43.0694214 C99.2098201,43.4919451 99.122561,43.7674999 98.9480404,43.8960941 C98.7735197,44.0246882 98.4290762,44.0889843 97.9146995,44.0889843 L91.6870985,44.0889843 C91.576875,44.0889843 91.521764,44.1532805 91.521764,44.2818746 C91.521764,45.2738868 91.8019114,46.1648474 92.3622146,46.954783 C92.9225177,47.7447187 93.7262193,48.1396806 94.7733433,48.1396806 C95.3795729,48.1396806 95.958238,48.0524215 96.5093559,47.8779009 C97.0604738,47.7033802 97.4462505,47.5472325 97.6666977,47.409453 C97.8871448,47.2716735 98.18107,47.0650074 98.5484819,46.7894485 C98.7138173,46.8629309 98.7964837,47.0374489 98.7964837,47.3130079 C98.7964837,47.533455 98.7597431,47.7171582 98.6862607,47.864123 C98.5025547,48.3050173 97.9514451,48.8285714 97.0329153,49.4348011 C96.1143855,50.0410308 95.0856475,50.3441411 93.9466706,50.3441411 C92.2565757,50.3441411 90.8007278,49.7287353 89.5790832,48.4979054 C88.3574385,47.2670754 87.7466253,45.7882646 87.7466253,44.0614286 C87.7466253,42.2978514 88.297735,40.8190405 89.3999707,39.6249518 C90.5022065,38.430863 91.9442767,37.8338276 93.7262245,37.8338276 Z M25.336664,82.7696121 C26.1674232,82.7696121 27.0170505,82.5902464 27.8855715,82.2315094 C28.7540925,81.8727725 29.1883464,81.391317 29.1883464,80.7871285 C29.1883464,80.711605 28.7163312,79.4466043 27.7722867,76.9920885 L26.0730151,72.8571942 C25.9219679,72.706147 25.7898037,72.6306246 25.6765184,72.6306246 C24.9590445,72.5928628 23.1465062,72.5739822 20.2388491,72.5739822 C17.7465715,72.5739822 15.8396302,72.5928628 14.5179678,72.6306246 C14.3669207,72.6306246 14.2347565,72.7250276 14.1214711,72.9138365 L12.2522723,77.2186581 C11.4970367,78.9179382 11.1194245,80.0696553 11.1194245,80.6738438 C11.1194245,81.2780322 11.4592755,81.7500474 12.1389875,82.0899035 C12.8186996,82.4297595 13.4134387,82.6280059 13.9232228,82.6846485 C14.4330068,82.7412912 14.8767011,82.7696121 15.2543189,82.7696121 C15.3676042,82.8073739 15.4242461,83.1094636 15.4242461,83.6758903 C15.4242461,84.2423171 15.3864848,84.6388098 15.3109613,84.8653805 C14.8200581,84.8276187 13.8288262,84.742656 12.3372359,84.6104897 C10.8456455,84.4783235 9.62784636,84.4122414 8.68380183,84.4122414 C7.7397573,84.4122414 6.60692086,84.4783235 5.28525853,84.6104897 C3.96359619,84.742656 2.94404339,84.8276187 2.22656955,84.8653805 C2.07552243,84.7143334 2,84.4311243 2,84.0157447 C2,83.2227473 2.03776121,82.8262545 2.11328478,82.8262545 C2.56642615,82.8262545 3.32165044,82.6280081 4.37898031,82.2315094 C5.43631018,81.8350107 6.09713144,81.4290777 6.36146391,81.0136981 C6.66355816,80.5605567 6.97508818,80.0035788 7.29606332,79.3427476 C7.61703845,78.6819165 7.87192665,78.1438191 8.06073556,77.7284396 L8.3439475,77.0487309 L20.8619153,48.2743976 C21.2772949,47.2925913 21.9758774,46.8016955 22.9576837,46.8016955 C23.5241104,46.8016955 23.977245,47.0471434 24.317101,47.5380465 L35.9287907,76.2557375 C36.6462645,77.9927794 37.2693245,79.5409892 37.7979895,80.9004133 C38.0245602,81.5046018 38.6476202,81.9671767 39.6671883,82.2881518 C40.6867564,82.609127 41.4608613,82.7696121 41.9895262,82.7696121 C42.1405733,82.7696121 42.2160958,83.0905824 42.2160958,83.7325327 C42.2160958,84.374483 42.1783345,84.7520951 42.102811,84.8653805 C41.9517639,84.8653805 40.7906065,84.7898581 38.6193041,84.6388109 C36.4480017,84.4877638 34.871471,84.4122414 33.8896647,84.4122414 C33.6253322,84.4122414 30.7743605,84.5632862 25.336664,84.8653805 C25.1856169,84.7143334 25.1100945,84.3272809 25.1100945,83.7042115 C25.1100945,83.0811421 25.1856169,82.7696121 25.336664,82.7696121 Z M16.0473123,69.0055117 C17.1801658,69.1187971 18.5773307,69.1754389 20.2388491,69.1754389 C21.7493203,69.1754389 23.0898434,69.1376777 24.2604586,69.0621541 L24.4303858,68.7789422 L20.3521338,58.6399547 L15.9340275,68.7789422 C15.9340275,68.9299893 15.9717888,69.0055117 16.0473123,69.0055117 Z M64.0800577,59.3763057 C66.270241,59.3763057 68.0544584,60.3014555 69.4327634,62.1517827 C70.8110684,64.00211 71.5002106,66.8153205 71.5002106,70.5914986 L71.5002106,76.1990951 C71.5002106,78.6158491 71.6323748,80.3339843 71.8967073,81.3535524 C71.9722308,81.6178849 72.5008879,81.9199746 73.4826942,82.2598306 C74.4645005,82.5996867 75.1253217,82.7696121 75.4651778,82.7696121 C75.5784631,82.7696121 75.6445452,83.0811421 75.6634261,83.7042115 C75.682307,84.3272809 75.6539861,84.7143334 75.5784625,84.8653805 C75.1630829,84.8276187 73.983045,84.742656 72.0383133,84.6104897 C70.0935815,84.4783235 68.6869763,84.4122414 67.8184553,84.4122414 C66.9121726,84.4122414 65.5433285,84.4783235 63.7118822,84.6104897 C61.8804358,84.742656 60.738159,84.8276187 60.2850177,84.8653805 C60.1339705,84.7143334 60.0584481,84.3272809 60.0584481,83.7042115 C60.0584481,83.0811421 60.1339705,82.7696121 60.2850177,82.7696121 C60.7003973,82.7696121 61.3612185,82.5996867 62.2675013,82.2598306 C63.173784,81.9199746 63.6646798,81.6178849 63.7402034,81.3535524 C64.0045358,80.220699 64.1367001,78.7857728 64.1367001,77.0487309 L64.1367001,71.9509159 C64.1367001,69.1565441 63.7496476,67.1646401 62.9755311,65.975144 C62.2014146,64.7856479 60.9647348,64.1909087 59.2654547,64.1909087 C58.0948395,64.1909087 57.1508091,64.4080357 56.4333353,64.8422962 C55.7158614,65.2765567 55.3571299,65.8901764 55.3571299,66.6831738 L55.3571299,76.1990951 C55.3571299,78.6158491 55.4892941,80.3339843 55.7536266,81.3535524 C55.8291502,81.6178849 56.3294862,81.9199746 57.2546499,82.2598306 C58.1798135,82.5996867 58.7934333,82.7696121 59.0955275,82.7696121 C59.2088128,82.7696121 59.274895,83.0811421 59.2937759,83.7042115 C59.3126568,84.3272809 59.2843358,84.7143334 59.2088123,84.8653805 C58.7556709,84.8276187 57.6039539,84.742656 55.7536266,84.6104897 C53.9032993,84.4783235 52.5438956,84.4122414 51.6753746,84.4122414 C50.7690919,84.4122414 49.3530463,84.4783235 47.4271955,84.6104897 C45.5013447,84.742656 44.330747,84.8276187 43.9153674,84.8653805 C43.7643203,84.7143334 43.6887979,84.3272809 43.6887979,83.7042115 C43.6887979,83.0811421 43.7643203,82.7696121 43.9153674,82.7696121 C44.330747,82.7696121 45.0293295,82.5996867 46.0111358,82.2598306 C46.9929421,81.9199746 47.5215991,81.6178849 47.5971227,81.3535524 C47.8614551,80.220699 47.9936194,78.7857728 47.9936194,77.0487309 L47.9936194,69.2887237 C47.9936194,67.1740639 47.6537684,65.7580184 46.9740564,65.0405446 C46.7097239,64.7384503 46.3132312,64.4930024 45.7845662,64.3041935 C45.2559013,64.1153846 44.8027667,63.9832203 44.4251489,63.9076968 C44.0475311,63.8321732 43.858725,63.7755314 43.858725,63.7377696 C43.858725,62.4161073 43.9531281,61.755286 44.141937,61.755286 C44.5950783,61.755286 45.3503026,61.6514427 46.4076325,61.4437529 C47.4649624,61.2360631 48.8432467,60.9434137 50.5425269,60.5657959 C52.241807,60.1881781 53.5634495,59.9049689 54.507494,59.71616 C54.5830176,59.71616 54.6679803,59.6972794 54.7623848,59.6595177 C54.8567892,59.6217559 54.941752,59.6028753 55.0172755,59.6028753 L55.1305603,59.5462329 C55.3193692,59.5462329 55.5081753,59.6689568 55.6969842,59.9144084 C55.8857931,60.15986 55.9801961,60.3581064 55.9801961,60.5091535 C55.829149,61.5664834 55.7536266,62.1517822 55.7536266,62.2650675 C55.7536266,62.4538764 55.7725072,62.5671601 55.810269,62.6049219 C55.8857925,62.6049219 56.0179568,62.5105188 56.2067657,62.3217099 C58.3214254,60.3580973 60.9458299,59.3763057 64.0800577,59.3763057 Z M96.4795038,89.2268444 C96.4795038,87.5275642 93.3075618,86.6779369 86.9635826,86.6779369 C86.8502973,86.7156987 86.7747748,86.7345793 86.737013,86.7345793 C85.4908743,87.1499589 84.73565,87.5653323 84.4713175,87.9807119 C84.206985,88.3205679 84.0748208,88.8303443 84.0748208,89.5100563 C84.0748208,90.6429098 84.6695599,91.5963804 85.859056,92.370497 C87.0485521,93.1446135 88.3796349,93.5316659 89.8523444,93.5316659 C91.815957,93.5316659 93.4113683,93.1729344 94.6386262,92.4554605 C95.8658841,91.7379867 96.4795038,90.6617921 96.4795038,89.2268444 Z M86.737013,67.9859487 C86.737013,68.9677551 86.7747743,69.8079421 86.8502978,70.506535 C86.9258214,71.205128 87.0579856,71.9225911 87.2467945,72.6589458 C87.4356034,73.3953005 87.7565738,73.9522784 88.2097151,74.3298962 C88.6628565,74.7075141 89.2481553,74.8963201 89.9656292,74.8963201 C90.683103,74.8963201 91.2589615,74.7547156 91.693222,74.4715022 C92.1274825,74.1882889 92.4295722,73.7445946 92.5995002,73.1404061 C92.7694283,72.5362176 92.8827119,71.9792397 92.9393546,71.4694556 C92.9959972,70.9596716 93.0243182,70.28941 93.0243182,69.4586508 C93.0243182,67.0418969 92.7977509,65.2293586 92.3446095,64.0209816 C91.8914681,62.8126046 90.985199,62.2084251 89.6257749,62.2084251 C88.9460628,62.2084251 88.3890849,62.3783506 87.9548244,62.7182066 C87.5205639,63.0580627 87.2279145,63.5678391 87.0768674,64.2475511 C86.9258203,64.9272632 86.8314172,65.4842411 86.7936554,65.9185016 C86.7558937,66.3527621 86.737013,66.9475012 86.737013,67.7027368 L86.737013,67.9859487 Z M90.0222716,59.2063785 C91.3816957,59.2063785 92.977107,59.4518264 94.8085534,59.9427296 C96.6399998,60.4336328 98.1032468,60.6790806 99.1983385,60.6790806 L102.31367,60.6790806 C102.426955,60.7168424 102.634642,61.0566934 102.936736,61.6986436 C103.23883,62.3405939 103.389875,62.7937285 103.389875,63.058061 C103.389875,63.5867259 103.276592,63.8510544 103.050021,63.8510544 L99.70812,63.8510544 C99.5570729,63.8888162 99.4815504,63.945458 99.4815504,64.0209816 C99.4815504,64.0587433 99.623155,64.57796 99.9063683,65.5786472 C100.189582,66.5793344 100.331186,67.5139245 100.331186,68.3824455 C100.331186,70.7614377 99.3682753,72.9327075 97.4424245,74.8963201 C95.5165736,76.8599327 93.0998559,77.8417243 90.1921987,77.8417243 C88.6817275,77.8417243 87.3978462,77.7473213 86.3405163,77.5585124 C85.887375,77.7095595 85.547524,77.9644477 85.3209533,78.3231846 C85.0943826,78.6819216 84.981099,78.9934516 84.981099,79.257784 C84.981099,79.5221165 85.1699051,79.7392435 85.5475229,79.9091715 C85.9251407,80.0790995 86.5009992,80.2112638 87.2751157,80.3056682 C88.0492322,80.4000727 88.7289341,80.4755951 89.3142417,80.5322378 C89.8995493,80.5888805 90.7397363,80.636082 91.834828,80.6738438 C92.9299197,80.7116055 93.6285021,80.7304861 93.9305964,80.7304861 C99.9724813,81.0325804 103.012259,83.0150442 103.050021,86.6779369 C103.087783,89.4345469 101.596215,91.8418244 98.5752722,93.8998414 C95.5543297,95.9578585 92.3257459,96.9868516 88.8894238,96.9868516 C86.0195284,96.9868516 83.6028107,96.4204334 81.6391981,95.28758 C79.6755855,94.1547265 78.6937939,92.6442779 78.6937939,90.7561889 C78.6937939,89.9254297 79.1374882,89.0380412 80.02489,88.0939966 C80.9122919,87.1499521 82.0168074,86.4702502 83.3384697,86.0548706 C82.3566634,85.6394911 81.4692749,84.9692295 80.6762775,84.0440659 C79.8832801,83.1189022 79.4867873,82.1087897 79.4867873,81.0136981 C79.4867873,80.5227949 79.6189516,80.0507797 79.883284,79.5976384 C80.1476165,79.144497 80.5724302,78.7008027 81.1577378,78.2665422 C81.7430454,77.8322818 82.1584188,77.5396323 82.4038703,77.3885852 C82.6493219,77.2375381 83.1118968,76.9732096 83.7916088,76.5955918 C82.6965172,75.9914033 81.695845,74.924649 80.7895623,73.3952968 C79.8832795,71.8659447 79.4301449,70.289414 79.4301449,68.6656574 C79.4301449,65.5691914 80.459138,63.2185557 82.5171551,61.6136801 C84.5751722,60.0088044 87.0768526,59.2063785 90.0222716,59.2063785 Z M118.343466,62.4349947 C116.870756,62.4349947 115.794562,63.1430175 115.11485,64.5590843 C114.435138,65.975151 114.095287,67.3628757 114.095287,68.7222998 C114.095287,68.9488705 114.227451,69.0621541 114.491783,69.0621541 L121.685367,69.0621541 C122.214032,69.0621541 122.47836,68.7034226 122.47836,67.9859487 C122.47836,66.5510011 122.091308,65.2671198 121.317191,64.1342663 C120.543075,63.0014129 119.551843,62.4349947 118.343466,62.4349947 Z M118.626678,59.3196633 C122.025238,59.3196633 124.753486,60.4997013 126.811503,62.8598126 C128.86952,65.2199239 129.898513,67.6272013 129.898513,70.0817171 C129.898513,70.9502381 129.719147,71.5166563 129.36041,71.7809888 C129.001673,72.0453212 128.293651,72.1774855 127.236321,72.1774855 L114.435141,72.1774855 C114.20857,72.1774855 114.095287,72.3096497 114.095287,72.5739822 C114.095287,74.6131184 114.671145,76.4445373 115.822879,78.0682939 C116.974614,79.6920505 118.626667,80.5039166 120.779088,80.5039166 C122.025227,80.5039166 123.214706,80.3245508 124.347559,79.9658139 C125.480412,79.607077 126.273398,79.2861067 126.726539,79.0028933 C127.179681,78.7196799 127.78386,78.2948663 128.539096,77.7284396 C128.878952,77.8794867 129.048877,78.2382182 129.048877,78.8046449 C129.048877,79.2577863 128.973355,79.6353985 128.822308,79.9374927 C128.44469,80.8437754 127.311853,81.9199701 125.423764,83.1661088 C123.535675,84.4122476 121.421047,85.0353077 119.079817,85.0353077 C115.605733,85.0353077 112.613157,83.770307 110.101998,81.2402676 C107.59084,78.7102283 106.335279,75.6704505 106.335279,72.1208431 C106.335279,68.4957121 107.468116,65.4559343 109.733823,63.0014186 C111.99953,60.5469028 114.963785,59.3196633 118.626678,59.3196633 Z M136.808884,54.5617027 C136.808884,52.786899 136.714481,51.4274953 136.525672,50.4834507 C136.336864,49.8792622 135.355072,49.5771725 133.580268,49.5771725 L133.070487,49.5771725 C132.843916,49.5771725 132.730632,49.1995604 132.730632,48.4443248 C132.730632,47.8023745 132.843916,47.4814041 133.070487,47.4814041 C134.241102,47.3681188 135.42114,47.2170739 136.610636,47.028265 C137.800132,46.8394561 138.810245,46.6506501 139.641004,46.4618412 C140.471763,46.2730323 141.217547,46.0842262 141.878378,45.8954173 C142.539209,45.7066084 143.058426,45.5555635 143.436044,45.4422782 L144.002468,45.272351 L144.115752,45.272351 C144.2668,45.272351 144.417844,45.3856346 144.568892,45.6122053 C144.719939,45.838776 144.814342,46.0464627 144.852104,46.2352716 C144.436724,47.9345518 144.229037,49.8414931 144.229037,51.9561528 L144.172395,76.1990951 C144.172395,78.6158491 144.304559,80.3339843 144.568892,81.3535524 C144.644415,81.6178849 145.173072,81.9199746 146.154878,82.2598306 C147.136685,82.5996867 147.797506,82.7696121 148.137362,82.7696121 C148.250647,82.7696121 148.31673,83.0811421 148.33561,83.7042115 C148.354491,84.3272809 148.32617,84.7143334 148.250647,84.8653805 C147.835267,84.8276187 146.655229,84.742656 144.710498,84.6104897 C142.765766,84.4783235 141.359161,84.4122414 140.49064,84.4122414 C139.584357,84.4122414 138.168311,84.4783235 136.242461,84.6104897 C134.31661,84.742656 133.146012,84.8276187 132.730632,84.8653805 C132.579585,84.7143334 132.504063,84.3272809 132.504063,83.7042115 C132.504063,83.0811421 132.579585,82.7696121 132.730632,82.7696121 C133.146012,82.7696121 133.844594,82.5996867 134.826401,82.2598306 C135.808207,81.9199746 136.336864,81.6178849 136.412388,81.3535524 C136.67672,80.220699 136.808884,78.7857728 136.808884,77.0487309 L136.808884,54.5617027 Z M56.5672868,104.742266 C56.5672868,103.566548 56.4938056,102.850106 56.3468408,102.592917 C56.2549878,102.445952 55.9978033,102.294397 55.5752796,102.138247 C55.1527559,101.982097 54.8404604,101.904023 54.6383839,101.904023 C54.5649015,101.904023 54.5281609,101.747876 54.5281609,101.435575 C54.5281609,101.104905 54.5465312,100.921201 54.5832724,100.88446 C54.8588313,100.902831 55.299719,100.934979 55.9059487,100.980905 C56.5121784,101.026832 56.9668438,101.054387 57.2699586,101.063573 C57.5730735,101.072758 58.0093686,101.068165 58.5788571,101.049795 C58.946269,101.049795 60.2321914,100.994684 62.436663,100.88446 C62.4917748,101.049796 62.5193303,101.215129 62.5193303,101.380464 C62.5193303,101.729505 62.4825896,101.904023 62.4091072,101.904023 C62.2437719,101.904023 61.9131061,101.982097 61.4171,102.138247 C60.9210939,102.294397 60.6547242,102.436767 60.6179831,102.565361 C60.5628713,102.785809 60.5169455,103.093511 60.4802043,103.488479 C60.4434631,103.883447 60.4250928,104.218705 60.4250928,104.494264 L60.4250928,115.103231 C60.4250928,116.150355 60.498574,116.958649 60.6455388,117.528137 C60.68228,117.656731 60.9348719,117.803694 61.4033221,117.969029 C61.8717723,118.134365 62.1886603,118.217031 62.3539957,118.217031 C62.4274781,118.217031 62.4642187,118.391549 62.4642187,118.740591 C62.4642187,118.961038 62.4458484,119.126371 62.4091072,119.236594 C62.2805131,119.236594 61.7294034,119.199853 60.7557618,119.126371 C59.7821202,119.052889 59.0564926,119.016148 58.5788571,119.016148 C58.082851,119.016148 57.3572233,119.048296 56.4019523,119.112593 C55.4466813,119.17689 54.8404607,119.218224 54.5832724,119.236594 C54.50979,119.163112 54.4730493,119.016149 54.4730493,118.795702 C54.4730493,118.409919 54.5006048,118.217031 54.5557166,118.217031 C54.7577932,118.217031 55.0976441,118.138957 55.5752796,117.982807 C56.0529151,117.826657 56.3192848,117.675102 56.3743965,117.528137 C56.5029907,117.032131 56.5672868,116.297318 56.5672868,115.323677 L56.5672868,104.742266 Z M73.9549692,106.836504 C75.0204638,106.836504 75.8884614,107.286577 76.5589882,108.186736 C77.229515,109.086895 77.5647733,110.455484 77.5647733,112.292543 L77.5647733,115.020563 C77.5647733,116.196282 77.6290694,117.032131 77.7576636,117.528137 C77.7944048,117.656731 78.0515893,117.803694 78.5292248,117.969029 C79.0068603,118.134365 79.3283409,118.217031 79.4936763,118.217031 C79.5487881,118.217031 79.5809361,118.368586 79.5901214,118.671701 C79.5993067,118.974816 79.585529,119.163112 79.5487878,119.236594 C79.3467112,119.218224 78.7726387,119.17689 77.826553,119.112593 C76.8804673,119.048296 76.1961729,119.016148 75.7736491,119.016148 C75.3327548,119.016148 74.6668307,119.048296 73.7758568,119.112593 C72.8848829,119.17689 72.3291807,119.218224 72.1087335,119.236594 C72.0352511,119.163112 71.9985105,118.974816 71.9985105,118.671701 C71.9985105,118.368586 72.0352511,118.217031 72.1087335,118.217031 C72.3108101,118.217031 72.6322907,118.134365 73.073185,117.969029 C73.5140793,117.803694 73.7528935,117.656731 73.7896347,117.528137 C73.9182288,116.977019 73.982525,116.278947 73.982525,115.4339 L73.982525,112.953882 C73.982525,111.594458 73.7942292,110.625423 73.417632,110.046749 C73.0410347,109.468076 72.4394067,109.178743 71.6127299,109.178743 C71.0432414,109.178743 70.5839834,109.284372 70.2349421,109.495634 C69.8859008,109.706896 69.7113827,110.005414 69.7113827,110.391196 L69.7113827,115.020563 C69.7113827,116.196282 69.7756788,117.032131 69.904273,117.528137 C69.9410142,117.656731 70.1844209,117.803694 70.6345005,117.969029 C71.0845802,118.134365 71.3830979,118.217031 71.5300626,118.217031 C71.5851744,118.217031 71.6173225,118.368586 71.6265078,118.671701 C71.6356931,118.974816 71.6219153,119.163112 71.5851741,119.236594 C71.364727,119.218224 70.8044322,119.17689 69.904273,119.112593 C69.0041138,119.048296 68.3427822,119.016148 67.9202585,119.016148 C67.4793642,119.016148 66.7904772,119.048296 65.8535768,119.112593 C64.9166764,119.17689 64.3471964,119.218224 64.1451199,119.236594 C64.0716375,119.163112 64.0348969,118.974816 64.0348969,118.671701 C64.0348969,118.368586 64.0716375,118.217031 64.1451199,118.217031 C64.3471964,118.217031 64.6870474,118.134365 65.1646829,117.969029 C65.6423184,117.803694 65.8995029,117.656731 65.9362441,117.528137 C66.0648382,116.977019 66.1291344,116.278947 66.1291344,115.4339 L66.1291344,111.658761 C66.1291344,110.630008 65.9638015,109.941121 65.6331307,109.592079 C65.5045366,109.445115 65.3116482,109.325707 65.0544599,109.233855 C64.7972715,109.142002 64.5768277,109.077705 64.3931217,109.040964 C64.2094157,109.004223 64.1175641,108.976668 64.1175641,108.958297 C64.1175641,108.315326 64.1634899,107.993845 64.2553429,107.993845 C64.4757901,107.993845 64.8431965,107.943327 65.3575732,107.842289 C65.8719499,107.741251 66.5424666,107.598881 67.3691434,107.415175 C68.1958202,107.231469 68.8387815,107.093691 69.2980464,107.001838 C69.3347875,107.001838 69.3761208,106.992653 69.4220473,106.974282 C69.4679738,106.955912 69.509307,106.946727 69.5460482,106.946727 L69.6011597,106.919171 C69.6930127,106.919171 69.7848643,106.978875 69.8767172,107.098283 C69.9685702,107.217692 70.014496,107.314136 70.014496,107.387619 C69.9410136,107.901996 69.904273,108.186735 69.904273,108.241847 C69.904273,108.3337 69.9134582,108.388811 69.9318288,108.407182 C69.9685699,108.407182 70.0328661,108.361256 70.1247191,108.269403 C71.1534724,107.314132 72.4302097,106.836504 73.9549692,106.836504 Z M91.0946498,106.836504 C92.1601443,106.836504 93.028142,107.286577 93.6986688,108.186736 C94.3691955,109.086895 94.7044539,110.455484 94.7044539,112.292543 L94.7044539,115.020563 C94.7044539,116.196282 94.76875,117.032131 94.8973442,117.528137 C94.9340854,117.656731 95.1912698,117.803694 95.6689053,117.969029 C96.1465408,118.134365 96.4680215,118.217031 96.6333568,118.217031 C96.6884686,118.217031 96.7206167,118.368586 96.729802,118.671701 C96.7389873,118.974816 96.7252095,119.163112 96.6884683,119.236594 C96.4863918,119.218224 95.9123193,119.17689 94.9662336,119.112593 C94.0201478,119.048296 93.3358534,119.016148 92.9133297,119.016148 C92.4724354,119.016148 91.8065113,119.048296 90.9155373,119.112593 C90.0245634,119.17689 89.4688612,119.218224 89.2484141,119.236594 C89.1749317,119.163112 89.138191,118.974816 89.138191,118.671701 C89.138191,118.368586 89.1749317,118.217031 89.2484141,118.217031 C89.4504906,118.217031 89.7719712,118.134365 90.2128656,117.969029 C90.6537599,117.803694 90.892574,117.656731 90.9293152,117.528137 C91.0579094,116.977019 91.1222055,116.278947 91.1222055,115.4339 L91.1222055,112.953882 C91.1222055,111.594458 90.9339097,110.625423 90.5573125,110.046749 C90.1807153,109.468076 89.5790873,109.178743 88.7524105,109.178743 C88.182922,109.178743 87.723664,109.284372 87.3746226,109.495634 C87.0255813,109.706896 86.8510633,110.005414 86.8510633,110.391196 L86.8510633,115.020563 C86.8510633,116.196282 86.9153594,117.032131 87.0439536,117.528137 C87.0806947,117.656731 87.3241015,117.803694 87.7741811,117.969029 C88.2242607,118.134365 88.5227784,118.217031 88.6697432,118.217031 C88.724855,118.217031 88.757003,118.368586 88.7661883,118.671701 C88.7753736,118.974816 88.7615959,119.163112 88.7248547,119.236594 C88.5044075,119.218224 87.9441128,119.17689 87.0439536,119.112593 C86.1437943,119.048296 85.4824628,119.016148 85.0599391,119.016148 C84.6190448,119.016148 83.9301578,119.048296 82.9932573,119.112593 C82.0563569,119.17689 81.486877,119.218224 81.2848004,119.236594 C81.2113181,119.163112 81.1745774,118.974816 81.1745774,118.671701 C81.1745774,118.368586 81.2113181,118.217031 81.2848004,118.217031 C81.486877,118.217031 81.8267279,118.134365 82.3043634,117.969029 C82.7819989,117.803694 83.0391834,117.656731 83.0759246,117.528137 C83.2045188,116.977019 83.2688149,116.278947 83.2688149,115.4339 L83.2688149,111.658761 C83.2688149,110.630008 83.103482,109.941121 82.7728113,109.592079 C82.6442171,109.445115 82.4513288,109.325707 82.1941404,109.233855 C81.9369521,109.142002 81.7165082,109.077705 81.5328023,109.040964 C81.3490963,109.004223 81.2572447,108.976668 81.2572447,108.958297 C81.2572447,108.315326 81.3031705,107.993845 81.3950235,107.993845 C81.6154706,107.993845 81.982877,107.943327 82.4972537,107.842289 C83.0116304,107.741251 83.6821471,107.598881 84.508824,107.415175 C85.3355008,107.231469 85.978462,107.093691 86.4377269,107.001838 C86.4744681,107.001838 86.5158013,106.992653 86.5617278,106.974282 C86.6076543,106.955912 86.6489875,106.946727 86.6857287,106.946727 L86.7408402,106.919171 C86.8326932,106.919171 86.9245448,106.978875 87.0163978,107.098283 C87.1082508,107.217692 87.1541766,107.314136 87.1541766,107.387619 C87.0806942,107.901996 87.0439536,108.186735 87.0439536,108.241847 C87.0439536,108.3337 87.0531387,108.388811 87.0715093,108.407182 C87.1082505,108.407182 87.1725466,108.361256 87.2643996,108.269403 C88.293153,107.314132 89.5698903,106.836504 91.0946498,106.836504 Z" id="The-Angel-Inn"></path>
        </g>
    </g>
</svg>
