<svg xmlns="http://www.w3.org/2000/svg" viewBox="0 0 1271.32 854.639"><g fill="#FFF"><path d="M537.946 294.537l-52.251 9.214 12.374 15.005.007-.004v155.177l-2.751.485-3.439-13.487-43.311-150.147-52.251 9.213 12.374 15.006v285.66l40.907-7.213V441.569l2.407-.424 3.781 13.428 43.313 150.145 39.533-6.971V294.899l-1.816.321zM595.623 587.7l44.547-7.855v-131.93l26.23-4.625 14.994-48.4-41.224 7.269v-79.577l46.447-8.19 14.986-48.398-105.979 18.687V587.7zM104.864 674.234l44.547-7.855v-131.93l26.23-4.625 14.994-48.399-41.224 7.269v-79.577l46.447-8.19 14.986-48.398-105.98 18.687v303.018zM267.748 342.495l-45.756 311.086 43.271-7.63 8.258-63.292 42.869-7.559 8.258 60.38 43.271-7.63-45.754-294.95-54.417 9.595zm11.951 192.077l12.79-97.913 1.242-8.057 2.451-.432 1.242 7.619 12.79 93.402-30.515 5.381zM754.735 256.626l-45.756 311.086 43.271-7.63 8.258-63.292 42.869-7.559 8.258 60.38 43.271-7.63-45.755-294.95-54.416 9.595zm11.951 192.077l12.79-97.912 1.242-8.057 2.451-.432 1.242 7.62 12.791 93.402-30.516 5.379zM1150.485 234.024l14.855-48.376-101.85 17.96v303.017l101.85-17.959-14.995-43.111-42.308 7.46v-83.287l29.614-5.222v-48.642l-29.614 5.222v-79.578z"/><path d="M1271.32 56.588L950.395 0l-20.954 119.196L0 283.081v514.97l320.925 56.588 20.597-116.811L1271.32 573.88V56.588zm-20.003 26.16v474.35L19.997 774.218v-474.36l1231.32-217.11z"/><path d="M1013.237 298.444c0-56.901-23.062-83.333-75.834-74.027l-4.849.855.019-.146-52.251 9.213 12.375 15.005v285.661l.16-1.242v1.526l44.547-7.855v-127.8l11.951-2.107 23.097 123.728 44.513-7.849-28.434-141.754c16.884-14.525 24.706-43.113 24.706-73.208zm-75.835 59.95v-89.866c12.354-2.178 32.966-4.168 32.966 39.12s-20.612 48.567-32.966 50.746z"/></g><g fill="#FFF"><path d="M1178.189 187.705c-.324.054-.599-.158-.601-.464l-.019-3.422c-.002-.303.271-.606.595-.66l15.884-2.637c.322-.054.597.159.599.462l.019 3.422c.002.305-.271.608-.593.662l-4.954.822c-.276.046-.498.295-.496.552l.07 12.702c.002.305-.271.608-.595.662l-3.785.628c-.322.053-.597-.159-.599-.464l-.07-12.702c-.001-.258-.228-.432-.501-.387l-4.954.824zM1201.497 197.019c.002.305-.271.608-.595.662l-3.758.624c-.324.054-.599-.158-.601-.464l-.094-17.156c-.002-.303.271-.606.595-.66l3.809-.632c.349-.058.698.094.872.348l5.156 8.714c.1.172.35.131.448-.074l5.076-10.412c.173-.311.52-.579.869-.637l3.809-.632c.324-.054.599.158.601.462l.094 17.156c.002.305-.271.608-.595.662l-3.758.624c-.324.054-.599-.158-.601-.464l-.046-8.343c-.001-.116-.175-.135-.225-.008l-3.499 7.266c-.173.309-.52.579-.869.637l-2.066.343a.903.903 0 01-.874-.348l-3.572-6.092c-.049-.11-.223-.034-.223.083l.047 8.341z"/></g></svg>
